<mxfile host="app.diagrams.net" modified="2023-01-25T19:18:28.905Z" agent="5.0 (Windows NT 10.0; Win64; x64) AppleWebKit/537.36 (KHTML, like Gecko) Chrome/109.0.0.0 Safari/537.36" etag="dhO3on1A8RSUXK5VrTVd" version="20.8.11" type="github">
  <diagram name="PÃ¡gina-1" id="332fWP1gR5pMhwYKdKRU">
    <mxGraphModel dx="1434" dy="796" grid="1" gridSize="10" guides="1" tooltips="1" connect="1" arrows="1" fold="1" page="1" pageScale="1" pageWidth="827" pageHeight="1169" math="0" shadow="0">
      <root>
        <mxCell id="0" />
        <mxCell id="1" parent="0" />
        <mxCell id="8S58DCZTx79EhPGUbjYO-1" value="&lt;b id=&quot;docs-internal-guid-f3b3b7cd-7fff-6bbc-12ce-11c5c0b4d1f9&quot; style=&quot;font-weight:normal;&quot;&gt;&lt;span style=&quot;font-size: 11pt; font-family: Calibri, sans-serif; color: rgb(0, 0, 0); background-color: transparent; font-weight: 400; font-style: normal; font-variant: normal; text-decoration: none; vertical-align: baseline;&quot;&gt;&lt;span style=&quot;border:none;display:inline-block;overflow:hidden;width:567px;height:316px;&quot;&gt;&lt;img style=&quot;margin-left:0px;margin-top:0px;&quot; height=&quot;316&quot; width=&quot;567&quot; src=&quot;https://lh6.googleusercontent.com/1XLluqGqRFFObaXNKhq238z7D_-YXF1-nKoK-PKUKVd29qs1X2wx_6fe3Scb9f2LjkqpcgatyzYqnt2QUSFuPlq3nqKkmpCnQrb2zQt54jg8H3sIWDpJ-PhQGBF5xqQHI8CVtCC8Z52r2CcqkGfTcK1JJXZGLRp-fr_UTzlK3is17lsFVPeyI7LX1_2hmA&quot;&gt;&lt;/span&gt;&lt;/span&gt;&lt;/b&gt;" style="text;whiteSpace=wrap;html=1;" vertex="1" parent="1">
          <mxGeometry x="110" y="160" width="560" height="340" as="geometry" />
        </mxCell>
      </root>
    </mxGraphModel>
  </diagram>
</mxfile>
